# xmcd CD database file
#
# Track frame offsets:
#	150
#	12095
#	43924
#	66972
#	92284
#	116609
#	143556
#	156097
#	188052
#	222255
#	255098
#	271163
#
# Disc length: 4011 seconds
#
# Revision: 2
# Processed by: cddbd v1.5.2PL0 Copyright (c) Steve Scherf et al.
# Submitted via: CDex 2.23
#
DISCID=970fa90c
DTITLE=Inverse Cinematics - Passin' Through
DYEAR=2008
DGENRE=Electronic
TTITLE0=Somethin' New (Intro)
TTITLE1=Detroit Jazzin'
TTITLE2=Passin' Through
TTITLE3=Take It Back To 68 (ft. Jebidah)
TTITLE4=Calm Sea
TTITLE5=Sundrops
TTITLE6=The Black Verse (Interlude)
TTITLE7=Sambatime
TTITLE8=Interplanetary Motivations
TTITLE9=Don't Give Up
TTITLE10=Get Mellow One More Time (Outro)
TTITLE11=The Rise And Fall (Bonus)
EXTD=YEAR: 2008
EXTT0=
EXTT1=
EXTT2=
EXTT3=
EXTT4=
EXTT5=
EXTT6=
EXTT7=
EXTT8=
EXTT9=
EXTT10=
EXTT11=
PLAYORDER=
